<?xml version="1.0" encoding="UTF-8" standalone="no"?>
<svg
   viewBox="0 0 100 100"
   version="1.1"
   id="svg52"
   xmlns="http://www.w3.org/2000/svg"
   xmlns:svg="http://www.w3.org/2000/svg">
   <defs
      id="defs56" />
   <!--!
   Font Awesome Pro 6.3.0 by @fontawesome - https://fontawesome.com License -
   https://fontawesome.com/license (Commercial License) Copyright 2023 Fonticons, Inc. -->
   <path
      d="m 0.21544789,28.311136 c 0,-6.623325 4.18558191,-11.996967 9.34455481,-11.996967 h 9.3445553 5.548329 10.025928 c 1.713169,0 3.114852,-1.799544 3.114852,-3.998988 0,-2.199443 -1.401683,-3.9989882 -3.114852,-3.9989882 h -5.197908 l 1.460087,-2.2494312 c 2.375074,-3.6490772 5.879282,-5.74854633 9.578169,-5.74854633 h 7.397773 c 7.397773,0 14.406187,4.22393173 19.13687,11.52208673 l 8.118082,12.471845 h 18.689108 c 3.445805,0 6.229705,3.574096 6.229705,7.997977 v 39.98989 c 0,4.42388 -2.7839,7.997976 -6.229705,7.997976 H 73.161381 C 69.462492,92.020025 60.507295,100.29293 50.053072,100.29293 H 34.478815 31.363964 28.249112 c -5.158973,0 -9.344554,-5.373638 -9.344554,-11.996963 0,-3.099217 0.914987,-5.898509 2.394542,-8.022971 -4.82802,-0.474879 -8.624245,-5.648571 -8.624245,-11.971974 0,-3.099214 0.914987,-5.898509 2.394541,-8.022972 -4.82802,-0.47488 -8.624245,-5.648571 -8.624245,-11.97197 0,-3.099217 0.9149876,-5.898509 2.3945423,-8.022972 -4.82802,-0.47488 -8.62424541,-5.648571 -8.62424541,-11.971972 z"
      id="path50"
      style="stroke-width:0.220584" />
</svg>